<?xml version="1.0" encoding="iso-8859-1"?>
<!-- Uploaded to: SVG Repo, www.svgrepo.com, Generator: SVG Repo Mixer Tools -->
<svg height="31px" width="31px" version="1.1" id="Layer_1" xmlns="http://www.w3.org/2000/svg" xmlns:xlink="http://www.w3.org/1999/xlink" 
	 viewBox="0 0 507.967 507.967" xml:space="preserve">
<path style="fill:#FFFFFF;" d="M200.887,133.4l-104,104c-51.9,54.8-61,137.5-4.9,201.8c58.6,57.4,143.6,51.1,196.8,0l109.9-109.9
	C259.387,288.9,214.587,183.4,200.887,133.4z"/>
<path style="fill:#56ACE0;" d="M405.587,105.6c-50.7-41.6-126.9-43.3-181.3,4.9c3.2,18.5,15.5,70.5,58.7,117.7L405.587,105.6z"/>
<g>
	<path style="fill:#FFC10D;" d="M425.587,125.5l-122.3,122.3c28.3,24.4,66.4,45.9,118,58.3
		C466.987,255.1,468.487,178.1,425.587,125.5z"/>
	<path style="fill:#FFC10D;" d="M187.087,187.1l-50.3,50.3h59.8c7.8,0,14.1,6.3,14.1,14.1s-6.3,14.1-14.1,14.1h-87.7
		c-9,9.7-16.2,20.7-21.1,32.7h50.4c7.8,0,14.1,6.3,14.1,14.1s-6.3,14.1-14.1,14.1h-57.8c-0.6,4.7-1,9.5-1,14.3
		c0,29.6,11.5,57.5,32.5,78.5s48.8,32.5,78.5,32.5c29.6,0,57.5-11.5,78.5-32.5l76.6-76.6C293.287,325,212.387,243.3,187.087,187.1z"
		/>
</g>
<path style="fill:#194F82;" d="M444.188,104.1c11.7-19,13.5-42.3,4.1-63.4c-11.3-25.1-35.3-40.7-62.7-40.7h-232.2
	c-7.8,0-14.1,6.3-14.1,14.1s6.3,14.1,14.1,14.1h232.2c16.4,0,30.2,9,36.9,24c4.6,10.4,4.7,21.5,0.7,31.3
	c-61.5-50-157.8-53.5-223.8,11.6l-127.4,127.3c-65.2,65.3-65.2,171.5,0,236.7c68.1,70.3,178.9,59.8,236.7,0l127.3-127.3
	C498.387,269.4,500.987,169.7,444.188,104.1z M405.587,105.6l-122.6,122.6c-43.2-47.3-55.5-99.3-58.7-117.7
	C278.688,62.3,354.887,63.9,405.587,105.6z M288.787,439.2c-53.2,51.1-138.2,57.4-196.8,0c-56.1-64.3-46.9-147,5-201.8l104-104
	c13.6,50,58.5,155.5,197.7,195.9L288.787,439.2z M421.287,306.1c-51.5-12.4-89.7-33.9-118-58.3l122.3-122.3
	C468.487,178.1,466.987,255.1,421.287,306.1z"/>
</svg>